<svg width="24" height="25" viewBox="0 0 24 25" fill="none" xmlns="http://www.w3.org/2000/svg">
<circle cx="12" cy="12.5" r="11.5" fill="white" stroke="#E27410"/>
<path d="M11.9999 19.6902C8.03543 19.6902 4.81006 16.4648 4.81006 12.5002C4.81006 8.53583 8.03543 5.31055 11.9999 5.31055C15.9644 5.31055 19.1898 8.53583 19.1898 12.5002C19.1898 16.4648 15.9644 19.6902 11.9999 19.6902ZM11.9999 6.31055C8.5868 6.31055 5.81006 9.08723 5.81006 12.5002C5.81006 15.9134 8.5868 18.6902 11.9999 18.6902C15.413 18.6902 18.1898 15.9134 18.1898 12.5002C18.1898 9.08723 15.413 6.31055 11.9999 6.31055Z" fill="#E27410"/>
<path d="M14.41 14.8929C14.3213 14.8929 14.2315 14.8693 14.1503 14.8197L11.7398 13.3507C11.5908 13.2599 11.5 13.0981 11.5 12.9237V9.37402C11.5 9.0979 11.7239 8.87402 12 8.87402C12.2761 8.87402 12.5 9.0979 12.5 9.37402V12.6429L14.6707 13.9658C14.9065 14.1095 14.9811 14.4172 14.8374 14.653C14.7433 14.8075 14.5786 14.8929 14.41 14.8929Z" fill="#E27410"/>
</svg>
