<svg width="40" height="31" viewBox="0 0 40 31" fill="none" xmlns="http://www.w3.org/2000/svg">
<path d="M5.50435 29.2886C5.11382 28.8981 5.11382 28.265 5.50435 27.8744L32.3744 1.00438C32.7649 0.613854 33.3981 0.613855 33.7886 1.00438L34.4957 1.71149C34.8862 2.10201 34.8862 2.73518 34.4957 3.1257L7.62567 29.9958C7.23514 30.3863 6.60198 30.3863 6.21145 29.9958L5.50435 29.2886Z" fill="#F47A0B"/>
<path d="M6.21147 1.00423C6.602 0.613702 7.23516 0.613702 7.62569 1.00423L34.4957 27.8743C34.8863 28.2648 34.8863 28.898 34.4957 29.2885L33.7886 29.9956C33.3981 30.3861 32.7649 30.3861 32.3744 29.9956L5.50436 3.12555C5.11384 2.73502 5.11384 2.10186 5.50437 1.71133L6.21147 1.00423Z" fill="#F47A0B"/>
</svg>
