<svg width="80" height="80" fill="none" xmlns="http://www.w3.org/2000/svg"><path d="M65.464 2.848H43.777a1.094 1.094 0 0 0-1.094 1.094v2.14a5.852 5.852 0 0 0-3.758 2.48 22.99 22.99 0 0 0-22.393 22.956v17.18l-.888 4.093h-1.108a1.094 1.094 0 0 0-1.094 1.094v22.173a1.094 1.094 0 0 0 1.094 1.094h10.527a1.096 1.096 0 0 0 1.093-1.094V53.885a1.094 1.094 0 0 0-1.093-1.094h-1.106l-.888-4.092V31.492a16.424 16.424 0 0 1 15.875-16.393c.162.235.34.457.535.665v4.532a12.035 12.035 0 0 0-10.928 11.968v40.67a4.223 4.223 0 0 0 4.219 4.218h22.008a4.223 4.223 0 0 0 4.219-4.219v-40.67a12.035 12.035 0 0 0-10.93-11.967v-4.532a5.824 5.824 0 0 0 1.438-2.835 32.612 32.612 0 0 1 13.283 3.352 1.094 1.094 0 0 0 1.063-1.913 32.731 32.731 0 0 0-9.324-3.098l11.232-3.145a1.095 1.095 0 0 0 .8-1.054V3.946a1.093 1.093 0 0 0-1.095-1.098ZM43.777 8.161a3.655 3.655 0 1 1-3.655 3.654 3.659 3.659 0 0 1 3.652-3.653l.003-.001ZM41.67 20.239v-2.98a5.75 5.75 0 0 0 4.212 0v2.982l-4.212-.002Zm-17.7 54.725h-8.342V54.98h8.342v19.985Zm-6.088-22.173.625-2.881h2.585l.625 2.881h-3.835Zm3-21.3v16.231h-2.164V31.517a20.804 20.804 0 0 1 19.309-20.723 5.654 5.654 0 0 0 .018 2.164A18.615 18.615 0 0 0 20.88 31.492h.002Zm35.93.773v40.67a2.034 2.034 0 0 1-2.032 2.03H32.77a2.034 2.034 0 0 1-2.031-2.03v-40.67a9.846 9.846 0 0 1 9.835-9.835h6.4a9.846 9.846 0 0 1 9.839 9.835Zm7.562-26.025-14.934 4.184a5.852 5.852 0 0 0-4.573-4.341V5.036h19.5l.007 1.203Z" fill="#fff"/><path d="M33.21 38.772V58.62a1.091 1.091 0 0 0 1.094 1.093h18.94a1.094 1.094 0 0 0 1.094-1.093V38.77a1.094 1.094 0 0 0-1.094-1.093H34.307a1.092 1.092 0 0 0-1.097 1.094Zm2.188 1.093H52.15v17.662H35.4l-.004-17.662Z" fill="#fff"/></svg>