<svg width="80" height="80" fill="none" xmlns="http://www.w3.org/2000/svg"><path d="M46.25 36.25a1.563 1.563 0 1 0 .001 3.126 1.563 1.563 0 0 0-.001-3.126ZM40 26.875a1.563 1.563 0 1 0 .001 3.126A1.563 1.563 0 0 0 40 26.875ZM21.25 67.5a1.563 1.563 0 1 0 .001 3.126 1.563 1.563 0 0 0-.001-3.126Z" fill="#fff"/><path d="M71.002 63.7 50.938 28.028V9.108a4.695 4.695 0 0 0 3.124-4.42A4.693 4.693 0 0 0 49.376 0h-18.75a4.693 4.693 0 0 0-4.688 4.688 4.695 4.695 0 0 0 3.125 4.42v18.92L8.997 63.7c-1.926 3.424-1.892 7.493.092 10.885C11.072 77.975 14.6 80 18.529 80H61.47c3.929 0 7.458-2.025 9.441-5.415 1.983-3.392 2.018-7.46.091-10.885ZM31.987 29.203c.131-.233.2-.497.2-.765V9.375h1.563a1.563 1.563 0 0 0 0-3.125h-3.125c-.862 0-1.563-.7-1.563-1.563 0-.861.701-1.562 1.563-1.562h18.75c.861 0 1.563.7 1.563 1.563 0 .861-.702 1.562-1.563 1.562H46.25a1.563 1.563 0 0 0 0 3.125h1.563v19.063c0 .268.069.532.2.765l9.21 16.373c-5.625-.455-11.23.682-16.379 3.349-6.62 3.425-13.989 4.029-20.937 1.754l12.08-21.476Zm36.227 43.804a7.738 7.738 0 0 1-6.744 3.868H18.53a7.738 7.738 0 0 1-6.744-3.868 7.74 7.74 0 0 1-.065-7.775l6.627-11.78a29.945 29.945 0 0 0 11.414 1.652c4.36-.216 8.572-1.361 12.519-3.404 5.28-2.734 11.087-3.678 16.841-2.747l9.157 16.279a7.74 7.74 0 0 1-.065 7.775Z" fill="#fff"/><path d="M33.75 36.25a4.693 4.693 0 0 0-4.688 4.688 4.693 4.693 0 0 0 4.688 4.687 4.693 4.693 0 0 0 4.688-4.688 4.693 4.693 0 0 0-4.688-4.687Zm0 6.25c-.862 0-1.563-.7-1.563-1.563 0-.861.701-1.562 1.563-1.562s1.563.7 1.563 1.563c0 .861-.701 1.562-1.563 1.562ZM58.75 67.5H27.5a1.563 1.563 0 0 0 0 3.125h31.25a1.563 1.563 0 0 0 0-3.125Z" fill="#fff"/></svg>