<svg width="80" height="80" fill="none" xmlns="http://www.w3.org/2000/svg"><g clip-path="url(#a)" fill="#fff"><path d="M57.685 32H56a1.263 1.263 0 1 0 0 2.526h1.684a1.263 1.263 0 1 0 0-2.526ZM48.843 40c0-.698-.565-1.263-1.263-1.263H20.632a1.263 1.263 0 1 0 0 2.526H47.58c.697 0 1.263-.565 1.263-1.263ZM20.632 64a1.263 1.263 0 1 0 0 2.526h6.737a1.263 1.263 0 1 0 0-2.526h-6.737Z"/><path fill-rule="evenodd" clip-rule="evenodd" d="M53.98 68.042a4.652 4.652 0 0 0 3.705 1.853c1.45 0 2.835-.693 3.705-1.853l6.821-9.094 2.526-3.368 8.338-11.117a4.637 4.637 0 0 0-.927-6.484 4.637 4.637 0 0 0-6.484.927l-.927 1.235V4.63A4.637 4.637 0 0 0 66.106 0H12.212A4.637 4.637 0 0 0 7.58 4.632v.42H4.633A4.637 4.637 0 0 0 0 9.685v60.632a4.637 4.637 0 0 0 4.632 4.631H7.58v.421A4.637 4.637 0 0 0 12.21 80h53.895a4.637 4.637 0 0 0 4.631-4.632V55.58l-2.526 3.368v16.42a2.108 2.108 0 0 1-2.105 2.106H12.212a2.108 2.108 0 0 1-2.106-2.106V16.763c0-.058-.004-.115-.011-.172a1.263 1.263 0 0 1-2.504.002 1.274 1.274 0 0 0-.011.17v55.658H4.633a2.108 2.108 0 0 1-2.106-2.105V9.684c0-1.16.945-2.105 2.106-2.105H7.58v8.842c0 .058.004.116.011.172a1.263 1.263 0 0 1 2.504-.002c.007-.055.011-.112.011-.17V4.63c0-1.16.944-2.105 2.105-2.105h53.895c1.16 0 2.105.945 2.105 2.106v38.736c0 .045.002.089.007.132L57.685 57.544l-3.873-5.165a4.6 4.6 0 0 0-3.05-1.806 4.6 4.6 0 0 0-3.435.88 4.6 4.6 0 0 0-1.806 3.05 4.601 4.601 0 0 0 .88 3.434l7.579 10.105Zm-5.137-14.568c-.45.337-.741.83-.82 1.386a2.09 2.09 0 0 0 .4 1.561L56 66.527a2.115 2.115 0 0 0 1.684.842c.66 0 1.289-.315 1.684-.842l17.684-23.58a2.108 2.108 0 0 0-.42-2.947 2.107 2.107 0 0 0-2.948.421l-14.99 19.986a1.263 1.263 0 0 1-2.02 0l-4.884-6.512a2.093 2.093 0 0 0-1.69-.843c-.451 0-.89.145-1.258.422Z"/><path d="M8.843 17.684c.64 0 1.168-.476 1.252-1.093a1.263 1.263 0 0 0-2.504.002 1.263 1.263 0 0 0 1.252 1.091ZM40.422 58.526c0-.698-.566-1.263-1.263-1.263H20.632a1.263 1.263 0 1 0 0 2.526h18.526c.698 0 1.264-.565 1.264-1.263ZM29.895 21.895a1.263 1.263 0 1 0 0 2.526h18.527a1.263 1.263 0 1 0 0-2.526H29.895ZM20.632 34.526H47.58a1.263 1.263 0 1 0 0-2.526H20.632a1.263 1.263 0 1 0 0 2.526ZM57.685 15.158H20.632a1.263 1.263 0 1 0 0 2.526h37.053a1.263 1.263 0 1 0 0-2.526ZM57.685 38.737H56a1.263 1.263 0 1 0 0 2.526h1.684a1.263 1.263 0 1 0 0-2.526Z"/></g><defs><clipPath id="a"><path fill="#fff" d="M0 0h80v80H0z"/></clipPath></defs></svg>