<svg width="80" height="80" fill="none" xmlns="http://www.w3.org/2000/svg"><g clip-path="url(#a)" fill="#fff"><path d="M40.433 28.36H10.436a1.172 1.172 0 0 0 0 2.344h29.997a1.172 1.172 0 1 0 0-2.344ZM40.433 36.594H10.436a1.172 1.172 0 1 0 0 2.343h29.997a1.172 1.172 0 1 0 0-2.343ZM40.433 44.828H10.436a1.172 1.172 0 0 0 0 2.343h29.997a1.172 1.172 0 1 0 0-2.343ZM41.605 54.233c0-.647-.524-1.171-1.172-1.171H10.436a1.172 1.172 0 0 0 0 2.343h29.997c.648 0 1.172-.524 1.172-1.172ZM10.436 65.129a1.172 1.172 0 0 0 0 2.343h15.037a1.172 1.172 0 1 0 0-2.343H10.436ZM53.936 14.508v-3.802A2.63 2.63 0 0 0 51.31 8.08H27.253a2.63 2.63 0 0 0-2.627 2.627v3.802a2.63 2.63 0 0 0 2.627 2.627h2.032a1.172 1.172 0 0 0 0-2.343h-2.032a.283.283 0 0 1-.283-.284v-3.802c0-.156.127-.283.283-.283H51.31c.156 0 .283.127.283.283v3.802a.284.284 0 0 1-.284.284H29.303a1.172 1.172 0 0 0 0 2.343H51.31a2.63 2.63 0 0 0 2.626-2.627Z"/><path d="M62.698 67.5c-.647 0-1.172.525-1.172 1.172v5.53a3.458 3.458 0 0 1-3.454 3.454H6.234a3.458 3.458 0 0 1-3.454-3.454V17.88c0-.253.03-.502.083-.744h10.669a4.044 4.044 0 0 0 4.04-4.04V2.426c.242-.053.49-.082.744-.082h39.756a3.458 3.458 0 0 1 3.454 3.454v20.53a1.172 1.172 0 1 0 2.344 0V5.798C63.87 2.6 61.269 0 58.072 0H18.316a5.76 5.76 0 0 0-4.1 1.698L2.134 13.78a5.76 5.76 0 0 0-1.697 4.1v56.322C.437 77.4 3.037 80 6.234 80h51.838c3.197 0 5.798-2.6 5.798-5.798v-5.53c0-.647-.525-1.172-1.172-1.172ZM15.228 4v9.095c0 .936-.76 1.697-1.696 1.697H4.437L15.228 4Z"/><path d="M78.747 41.875a4.654 4.654 0 0 0 .584-4.086 4.654 4.654 0 0 0-2.874-2.962 2.328 2.328 0 0 1-1.55-2.133 4.654 4.654 0 0 0-1.93-3.65 4.654 4.654 0 0 0-4.066-.706 2.328 2.328 0 0 1-2.508-.815 4.653 4.653 0 0 0-3.705-1.818c-1.46 0-2.812.662-3.706 1.818a2.329 2.329 0 0 1-2.507.815 4.654 4.654 0 0 0-4.067.707 4.655 4.655 0 0 0-1.93 3.648 2.328 2.328 0 0 1-1.55 2.134 4.654 4.654 0 0 0-2.873 2.962 4.654 4.654 0 0 0 .584 4.086 2.328 2.328 0 0 1 0 2.637 4.654 4.654 0 0 0-.584 4.086 4.654 4.654 0 0 0 2.874 2.962 2.328 2.328 0 0 1 1.55 2.134 4.685 4.685 0 0 0 4.046 4.5v10.668a2.489 2.489 0 0 0 3.79 2.118l4.298-2.646c.07-.043.112-.023.15 0l4.298 2.646a2.49 2.49 0 0 0 3.79-2.118V58.194a4.684 4.684 0 0 0 4.046-4.5 2.328 2.328 0 0 1 1.55-2.134 4.653 4.653 0 0 0 2.874-2.962 4.654 4.654 0 0 0-.584-4.086 2.327 2.327 0 0 1 0-2.637Zm-10.448 27.11-4.297-2.646a2.487 2.487 0 0 0-2.608 0l-4.297 2.645a.143.143 0 0 1-.219-.122v-10.89a2.325 2.325 0 0 1 2.114.893 4.654 4.654 0 0 0 3.706 1.818c1.46 0 2.812-.663 3.705-1.818a2.325 2.325 0 0 1 2.115-.894v10.891a.143.143 0 0 1-.219.122Zm8.511-23.153c.412.603.518 1.348.292 2.042a2.326 2.326 0 0 1-1.436 1.48 4.658 4.658 0 0 0-3.101 4.269 2.31 2.31 0 0 1-.844 1.73 2.333 2.333 0 0 1-2.153.447 4.66 4.66 0 0 0-5.018 1.63 2.326 2.326 0 0 1-1.852.91c-.73 0-1.405-.332-1.852-.91a4.655 4.655 0 0 0-5.018-1.63 2.332 2.332 0 0 1-2.154-.447 2.309 2.309 0 0 1-.843-1.73 4.66 4.66 0 0 0-3.101-4.269 2.326 2.326 0 0 1-1.436-1.48 2.326 2.326 0 0 1 .291-2.042 4.659 4.659 0 0 0 0-5.276 2.326 2.326 0 0 1-.291-2.043 2.326 2.326 0 0 1 1.436-1.48 4.66 4.66 0 0 0 3.101-4.269c.022-.73.374-1.394.964-1.823a2.326 2.326 0 0 1 2.033-.354 4.659 4.659 0 0 0 5.018-1.63 2.326 2.326 0 0 1 1.852-.909c.73 0 1.405.331 1.852.909a4.659 4.659 0 0 0 5.018 1.63 2.325 2.325 0 0 1 2.032.354c.591.429.943 1.093.964 1.823a4.659 4.659 0 0 0 3.102 4.269c.687.246 1.21.786 1.436 1.48.226.695.12 1.44-.292 2.042a4.659 4.659 0 0 0 0 5.277Z"/><path d="M62.698 33.372c-5.415 0-9.82 4.406-9.82 9.821 0 5.416 4.405 9.821 9.82 9.821s9.82-4.405 9.82-9.82c0-5.416-4.405-9.822-9.82-9.822Zm0 17.299c-4.123 0-7.477-3.355-7.477-7.478 0-4.122 3.354-7.477 7.477-7.477s7.477 3.354 7.477 7.477-3.354 7.478-7.477 7.478Z"/></g><defs><clipPath id="a"><path fill="#fff" d="M0 0h80v80H0z"/></clipPath></defs></svg>