<svg width="80" height="80" fill="none" xmlns="http://www.w3.org/2000/svg"><g clip-path="url(#a)" fill="#fff"><path d="M37.333 40h5.334a1.333 1.333 0 0 0 0-2.666h-5.334a1.333 1.333 0 0 0 0 2.666ZM41.333 41.334h-2.666a1.333 1.333 0 1 0 0 2.666h2.666a1.333 1.333 0 0 0 0-2.666ZM38.667 34.667h2.666a1.333 1.333 0 0 0 0-2.667h-2.666a1.333 1.333 0 0 0 0 2.667Z"/><path d="M9.693 59.056C6.048 62.7 4.267 72.12 4 77.2A2.667 2.667 0 0 0 6.667 80h66.666A2.667 2.667 0 0 0 76 77.2c-.267-5.082-2.044-14.502-5.69-18.145-3.76-3.756-15.718-7.333-18.649-8.163a19.251 19.251 0 0 1-1.316-6.666l3.382-2.959A6.667 6.667 0 0 0 56 36.247v-1.713a6.667 6.667 0 0 0 5.333-6.52 6.817 6.817 0 0 0-.07-.844l4.133-1.647a2.013 2.013 0 0 0 1.023-2.836 16.184 16.184 0 0 0-4.034-4.836l1.686-.425a1.97 1.97 0 0 0 1.478-2.16 6.702 6.702 0 0 0-3.788-4.88l1.488-.991a2.016 2.016 0 0 0 .73-2.41c-3.256-7.863-15.374-5.977-17.1-5.663a18.639 18.639 0 0 0-13.702-.034c-2.534-.42-13.78-1.83-16.89 5.699a2.02 2.02 0 0 0 .749 2.419l1.479.978a6.694 6.694 0 0 0-3.798 4.892 1.981 1.981 0 0 0 1.504 2.151l1.666.42a16.242 16.242 0 0 0-4.048 4.855 2.015 2.015 0 0 0 1.026 2.817l3.882 1.548c-.05.313-.077.63-.08.947A6.667 6.667 0 0 0 24 34.534v1.714c0 1.923.83 3.752 2.277 5.018l3.382 2.958a19.252 19.252 0 0 1-1.316 6.667c-2.931.843-14.888 4.41-18.65 8.165ZM45.22 77.334l-1.182-12.988.988-1.483a2.64 2.64 0 0 0 3.527-.196l4.723-4.721 2.522 3.532-7.318 15.856h-3.26Zm-13.696 0-7.32-15.867 2.522-3.532 4.723 4.732a2.667 2.667 0 0 0 3.527.2l.988 1.481-1.182 12.986h-3.258Zm10.43-14.667h-3.906l-1.131-1.697L40 57.886l3.084 3.084-1.13 1.697Zm-3.402 2.667h2.898l1.09 12h-5.072l1.084-12Zm11.957-11.262 1.2 1.674-5.041 5.036-3.646-3.646a14.302 14.302 0 0 0 7.487-3.064Zm-17.175 6.71-5.036-5.036 1.2-1.674a14.302 14.302 0 0 0 7.487 3.067l-3.65 3.643ZM6.667 77.342c.304-5.831 2.266-13.758 4.91-16.4 2.37-2.37 9.455-4.983 14.412-6.558l-3.956 5.54a2.667 2.667 0 0 0-.253 2.667l6.805 14.743h-5.918v-2.667a1.333 1.333 0 1 0-2.667 0v2.673l-13.333.002Zm66.666-.008H60v-2.667a1.333 1.333 0 1 0-2.667 0v2.667h-5.917l6.8-14.74a2.667 2.667 0 0 0-.25-2.667l-3.955-5.54c4.957 1.575 12.04 4.188 14.412 6.557 2.644 2.64 4.606 10.567 4.91 16.39ZM61.28 7.5l-1.974 1.316a2 2 0 0 0 .336 3.506 5.566 5.566 0 0 1 3.103 2.686l-2.379.6a2 2 0 0 0-1.521 1.623 1.97 1.97 0 0 0 .896 2 12.776 12.776 0 0 1 3.961 4.092L60.4 24.64a6.626 6.626 0 0 0-3.067-2.718V16a15.54 15.54 0 0 0-6.412-12.41c3.508-.123 8.49.385 10.358 3.91ZM54.667 16v5.626L50.5 22.667H44a2.643 2.643 0 0 0-1.765.684 3.992 3.992 0 0 0-4.47 0A2.644 2.644 0 0 0 36 22.667h-6.501l-4.166-1.041V16a12.666 12.666 0 0 1 4.248-9.39A15.333 15.333 0 0 1 40 2.667c8.087 0 14.667 5.981 14.667 13.333Zm-4 9.334V28c0 .737-.597 1.334-1.334 1.334h-4A1.333 1.333 0 0 1 44 28v-2.666h6.667Zm-21.334 0H36V28c0 .737-.597 1.334-1.333 1.334h-4A1.333 1.333 0 0 1 29.333 28v-2.666Zm-12.768-2.008a12.755 12.755 0 0 1 3.952-4.086 2 2 0 0 0-.577-3.626l-2.423-.611a5.582 5.582 0 0 1 3.15-2.69 2 2 0 0 0 1.178-1.646 2.031 2.031 0 0 0-.881-1.867l-1.975-1.308c1.815-3.426 6.57-4 10.059-3.912-.44.331-.862.683-1.27 1.056A15.305 15.305 0 0 0 22.668 16v5.922a6.61 6.61 0 0 0-3.011 2.637l-3.09-1.233Zm10.102 12.92v-2.912c0-.737-.597-1.334-1.334-1.334a4 4 0 0 1-4-3.986c0-.428.071-.854.208-1.26v-.03a3.972 3.972 0 0 1 2.779-2.558c.017 0 .03-.018.048-.023l2.299.565V28a4 4 0 0 0 4 4h4a4 4 0 0 0 4-4v-1.333a1.333 1.333 0 1 1 2.666 0V28a4 4 0 0 0 4 4h4a4 4 0 0 0 4-4v-3.292l2.29-.572c.017 0 .03.019.048.023A3.983 3.983 0 0 1 54.667 32c-.737 0-1.334.597-1.334 1.334v2.913a4 4 0 0 1-1.366 3.01l-7.334 6.42a4 4 0 0 1-2.633.99h-4a4 4 0 0 1-2.633-.99l-7.334-6.42a4 4 0 0 1-1.366-3.01Zm6.946 11.438A6.667 6.667 0 0 0 38 49.334h4a6.667 6.667 0 0 0 4.39-1.65l1.435-1.256c.2 1.824.636 3.613 1.298 5.324-.98.955-3.646 2.915-9.123 2.915-5.477 0-8.153-1.967-9.119-2.913a21.158 21.158 0 0 0 1.298-5.326l1.434 1.256Z"/><path d="M36 17.334h-6.667a1.333 1.333 0 0 0 0 2.666H36a1.333 1.333 0 0 0 0-2.666ZM42.666 18.667c0 .736.598 1.333 1.334 1.333h6.666a1.333 1.333 0 0 0 0-2.666H44c-.736 0-1.334.597-1.334 1.333ZM36 13.334h8a1.333 1.333 0 0 0 0-2.667h-8a1.333 1.333 0 0 0 0 2.667ZM36 9.334h2.666a1.333 1.333 0 1 0 0-2.667H36a1.333 1.333 0 0 0 0 2.667Z"/></g><defs><clipPath id="a"><path fill="#fff" d="M0 0h80v80H0z"/></clipPath></defs></svg>