<svg width="124" height="125" viewBox="0 0 124 125" fill="none" xmlns="http://www.w3.org/2000/svg">
<path d="M108.892 64.8195C111.477 67.4045 111.477 71.5957 108.892 74.1808L60.1804 122.892C57.5954 125.477 53.4042 125.477 50.8191 122.892L2.10788 74.1808C-0.477176 71.5957 -0.477176 67.4045 2.10788 64.8195L50.8191 16.1082C53.4042 13.5232 57.5954 13.5232 60.1804 16.1082L108.892 64.8195Z" fill="#E27410"/>
<path opacity="0.3" d="M115.461 58.1291C118.058 60.7257 118.058 64.9356 115.461 67.5322L66.5324 116.461C63.9358 119.057 59.7259 119.057 57.1293 116.461L8.20063 67.5322C5.60404 64.9356 5.60404 60.7257 8.20063 58.1291L57.1293 9.20037C59.7259 6.60378 63.9358 6.60378 66.5324 9.20037L115.461 58.1291Z" fill="#E27410"/>
<path opacity="0.15" d="M121.892 51.4806C124.477 54.0656 124.477 58.2568 121.892 60.8419L73.1809 109.553C70.5959 112.138 66.4046 112.138 63.8196 109.553L15.1084 60.8419C12.5233 58.2568 12.5233 54.0656 15.1084 51.4806L63.8196 2.76935C66.4047 0.184302 70.5959 0.1843 73.1809 2.76935L121.892 51.4806Z" fill="#E27410"/>
</svg>
