<svg width="125" height="124" viewBox="0 0 125 124" fill="none" xmlns="http://www.w3.org/2000/svg">
<path d="M64.65 14.9388C67.2351 12.3537 71.4263 12.3537 74.0113 14.9388L122.723 63.65C125.308 66.2351 125.308 70.4263 122.723 73.0113L74.0113 121.723C71.4263 124.308 67.2351 124.308 64.65 121.723L15.9388 73.0113C13.3537 70.4263 13.3537 66.2351 15.9388 63.65L64.65 14.9388Z" fill="url(#paint0_linear_1_4821)"/>
<g opacity="0.3">
<path d="M57.9599 8.36932C60.5565 5.77273 64.7664 5.77273 67.363 8.36932L116.292 57.298C118.888 59.8946 118.888 64.1045 116.292 66.7011L67.363 115.63C64.7664 118.226 60.5565 118.226 57.9599 115.63L9.03119 66.7011C6.43459 64.1045 6.43459 59.8946 9.03118 57.298L57.9599 8.36932Z" fill="#E27410"/>
<path d="M57.9599 8.36932C60.5565 5.77273 64.7664 5.77273 67.363 8.36932L116.292 57.298C118.888 59.8946 118.888 64.1045 116.292 66.7011L67.363 115.63C64.7664 118.226 60.5565 118.226 57.9599 115.63L9.03119 66.7011C6.43459 64.1045 6.43459 59.8946 9.03118 57.298L57.9599 8.36932Z" fill="url(#paint1_linear_1_4821)"/>
</g>
<g opacity="0.15">
<path d="M51.3114 1.9383C53.8965 -0.64675 58.0877 -0.646753 60.6727 1.9383L109.384 50.6495C111.969 53.2346 111.969 57.4258 109.384 60.0108L60.6727 108.722C58.0877 111.307 53.8965 111.307 51.3114 108.722L2.60017 60.0108C0.0151149 57.4258 0.0151127 53.2346 2.60017 50.6495L51.3114 1.9383Z" fill="#E27410"/>
<path d="M51.3114 1.9383C53.8965 -0.64675 58.0877 -0.646753 60.6727 1.9383L109.384 50.6495C111.969 53.2346 111.969 57.4258 109.384 60.0108L60.6727 108.722C58.0877 111.307 53.8965 111.307 51.3114 108.722L2.60017 60.0108C0.0151149 57.4258 0.0151127 53.2346 2.60017 50.6495L51.3114 1.9383Z" fill="url(#paint2_linear_1_4821)"/>
</g>
<defs>
<linearGradient id="paint0_linear_1_4821" x1="14" y1="57.1723" x2="128.033" y2="57.1723" gradientUnits="userSpaceOnUse">
<stop stop-color="#014C88"/>
<stop offset="0.473958" stop-color="#015DA0"/>
<stop offset="1" stop-color="#026AB3"/>
</linearGradient>
<linearGradient id="paint1_linear_1_4821" x1="7.08374" y1="50.7914" x2="121.626" y2="50.7914" gradientUnits="userSpaceOnUse">
<stop stop-color="#014C88"/>
<stop offset="0.473958" stop-color="#015DA0"/>
<stop offset="1" stop-color="#026AB3"/>
</linearGradient>
<linearGradient id="paint2_linear_1_4821" x1="0.661377" y1="44.1718" x2="114.694" y2="44.1718" gradientUnits="userSpaceOnUse">
<stop stop-color="#014C88"/>
<stop offset="0.473958" stop-color="#015DA0"/>
<stop offset="1" stop-color="#026AB3"/>
</linearGradient>
</defs>
</svg>
