<svg width="80" height="80" viewBox="0 0 80 80" fill="none" xmlns="http://www.w3.org/2000/svg">
<path d="M46.25 36.25C45.3875 36.25 44.6875 36.95 44.6875 37.8125C44.6875 38.675 45.3875 39.375 46.25 39.375C47.1125 39.375 47.8125 38.675 47.8125 37.8125C47.8125 36.95 47.1125 36.25 46.25 36.25Z" fill="white"/>
<path d="M40 26.875C39.1375 26.875 38.4375 27.575 38.4375 28.4375C38.4375 29.3 39.1375 30 40 30C40.8625 30 41.5625 29.3 41.5625 28.4375C41.5625 27.575 40.8625 26.875 40 26.875Z" fill="white"/>
<path d="M21.25 67.5C20.3875 67.5 19.6875 68.2 19.6875 69.0625C19.6875 69.925 20.3875 70.625 21.25 70.625C22.1125 70.625 22.8125 69.925 22.8125 69.0625C22.8125 68.2 22.1125 67.5 21.25 67.5Z" fill="white"/>
<path d="M71.0025 63.6997L50.9375 28.0283V9.10719C52.7564 8.46234 54.0625 6.72469 54.0625 4.6875C54.0625 2.10281 51.9597 0 49.375 0H30.625C28.0403 0 25.9375 2.10281 25.9375 4.6875C25.9375 6.72469 27.2436 8.46234 29.0625 9.10719V28.0283L8.99749 63.6997C7.07124 67.1241 7.10546 71.1933 9.08874 74.5845C11.0719 77.9755 14.6012 80 18.5297 80H61.4703C65.3987 80 68.928 77.9755 70.9112 74.5845C72.8945 71.1933 72.9287 67.1241 71.0025 63.6997ZM31.9869 29.2034C32.1184 28.9697 32.1875 28.7058 32.1875 28.4375V9.375H33.75C34.6128 9.375 35.3125 8.67531 35.3125 7.8125C35.3125 6.94969 34.6128 6.25 33.75 6.25H30.625C29.7634 6.25 29.0625 5.54906 29.0625 4.6875C29.0625 3.82594 29.7634 3.125 30.625 3.125H49.375C50.2365 3.125 50.9375 3.82594 50.9375 4.6875C50.9375 5.54906 50.2365 6.25 49.375 6.25H46.25C45.3872 6.25 44.6875 6.94969 44.6875 7.8125C44.6875 8.67531 45.3872 9.375 46.25 9.375H47.8125V28.4375C47.8125 28.7059 47.8815 28.9695 48.0131 29.2034L57.2226 45.5764C51.5984 45.1209 45.9937 46.2584 40.8444 48.9248C34.2247 52.3505 26.8555 52.9536 19.9069 50.6791L31.9869 29.2034ZM68.2136 73.0069C66.7972 75.4289 64.2762 76.875 61.4703 76.875H18.5297C15.7237 76.875 13.2028 75.4289 11.7864 73.0069C10.3697 70.5845 10.3451 67.6778 11.7212 65.2316L18.3475 53.4516C21.5625 54.5742 24.885 55.1409 28.2595 55.1409C28.759 55.1409 29.2598 55.1286 29.7615 55.1038C34.1217 54.8878 38.3337 53.7427 42.2809 51.7C47.5609 48.9663 53.3683 48.0225 59.122 48.953L68.2789 65.2316C69.6548 67.6778 69.6305 70.5845 68.2136 73.0069Z" fill="white"/>
<path d="M33.75 36.25C31.1653 36.25 29.0625 38.3528 29.0625 40.9375C29.0625 43.5222 31.1653 45.625 33.75 45.625C36.3347 45.625 38.4375 43.5222 38.4375 40.9375C38.4375 38.3528 36.3347 36.25 33.75 36.25ZM33.75 42.5C32.8884 42.5 32.1875 41.7991 32.1875 40.9375C32.1875 40.0759 32.8884 39.375 33.75 39.375C34.6116 39.375 35.3125 40.0759 35.3125 40.9375C35.3125 41.7991 34.6116 42.5 33.75 42.5Z" fill="white"/>
<path d="M58.75 67.5H27.5C26.6372 67.5 25.9375 68.1997 25.9375 69.0625C25.9375 69.9253 26.6372 70.625 27.5 70.625H58.75C59.6128 70.625 60.3125 69.9253 60.3125 69.0625C60.3125 68.1997 59.6128 67.5 58.75 67.5Z" fill="white"/>
</svg>
