<svg width="80" height="80" viewBox="0 0 80 80" fill="none" xmlns="http://www.w3.org/2000/svg">
<g clip-path="url(#clip0_28_1824)">
<path d="M57.6849 32H56.0007C55.3029 32 54.7375 32.5655 54.7375 33.2631C54.7375 33.9608 55.303 34.5262 56.0007 34.5262H57.6849C58.3827 34.5262 58.948 33.9608 58.948 33.2631C58.948 32.5655 58.3826 32 57.6849 32Z" fill="white"/>
<path d="M48.8429 39.9999C48.8429 39.3021 48.2776 38.7368 47.5798 38.7368H20.6323C19.9345 38.7368 19.3691 39.3023 19.3691 39.9999C19.3691 40.6977 19.9345 41.2631 20.6323 41.2631H47.5796C48.2773 41.2631 48.8429 40.6977 48.8429 39.9999Z" fill="white"/>
<path d="M20.6323 64C19.9345 64 19.3691 64.5655 19.3691 65.2631C19.3691 65.9608 19.9345 66.5263 20.6323 66.5263H27.3691C28.067 66.5263 28.6323 65.9608 28.6323 65.2631C28.6323 64.5655 28.067 64 27.3691 64H20.6323Z" fill="white"/>
<path fill-rule="evenodd" clip-rule="evenodd" d="M53.9799 68.042C54.8497 69.2023 56.2349 69.8948 57.685 69.8948C59.1352 69.8948 60.5203 69.2023 61.3903 68.0422L68.2111 58.9478L70.7374 55.5795L79.0746 44.4633C80.6069 42.4203 80.1913 39.5116 78.148 37.9789C76.1049 36.4469 73.196 36.8623 71.6639 38.9055L70.7374 40.1408V4.63156C70.7375 2.07781 68.6597 0 66.106 0H12.2116C9.65754 0 7.57988 2.07781 7.57988 4.63156V5.05266H4.63254C2.07863 5.05266 0.000976562 7.13047 0.000976562 9.68422V70.3158C0.000976562 72.8695 2.07863 74.9473 4.63254 74.9473H7.57988V75.3684C7.57988 77.9222 9.65754 80 12.2114 80H66.1058C68.6596 80 70.7374 77.9222 70.7374 75.3684V55.5795L68.2111 58.9478V75.3684C68.2111 76.5294 67.2667 77.4737 66.1058 77.4737H12.2116C11.0507 77.4737 10.1063 76.5294 10.1063 75.3684V16.7631C10.1063 16.7049 10.1024 16.6476 10.0947 16.5914C10.0115 17.2084 9.48284 17.6841 8.84301 17.6841C8.20357 17.6841 7.67518 17.2092 7.59145 16.5926C7.58392 16.6484 7.58004 16.7053 7.58004 16.7631V72.4211H4.63254C3.4716 72.4211 2.52723 71.4767 2.52723 70.3158V9.68422C2.52723 8.52328 3.4716 7.57891 4.63254 7.57891H7.57988V16.4209C7.57988 16.4792 7.58382 16.5365 7.59145 16.5926C7.67468 15.9756 8.20333 15.5 8.84316 15.5C9.4826 15.5 10.011 15.9749 10.0947 16.5914C10.1022 16.5357 10.1061 16.4788 10.1061 16.4209V4.63156C10.1061 3.47063 11.0505 2.52625 12.2114 2.52625H66.1058C67.2667 2.52625 68.2111 3.47063 68.2111 4.63156V43.3684C68.2111 43.413 68.2135 43.4567 68.2178 43.5002L57.685 57.5441L53.8116 52.3791C53.0694 51.3892 51.986 50.7478 50.7613 50.573C49.536 50.398 48.3167 50.7106 47.3274 51.4528C46.3375 52.195 45.6961 53.2784 45.5213 54.5031C45.3463 55.728 45.6589 56.9473 46.4011 57.937L53.9799 68.042ZM48.8433 53.4737C48.3933 53.8114 48.1018 54.3039 48.0221 54.8603C47.9425 55.417 48.0846 55.9714 48.4221 56.4212L56.001 66.5266C56.3964 67.0537 57.026 67.3686 57.685 67.3686C58.3443 67.3686 58.9738 67.0537 59.3693 66.5266L77.0535 42.9475C77.7499 42.0189 77.561 40.6967 76.6324 40.0002C75.7038 39.3038 74.3814 39.4923 73.685 40.4213L58.6955 60.4073C58.4571 60.7255 58.0824 60.9127 57.685 60.9127C57.2877 60.9127 56.913 60.7255 56.6746 60.4073L51.7905 53.895C51.453 53.4452 50.9605 53.1536 50.4039 53.0739C50.3028 53.0595 50.2019 53.0523 50.1017 53.0523C49.6496 53.0523 49.2114 53.1975 48.8433 53.4737Z" fill="white"/>
<path d="M8.84301 17.6841C9.48284 17.6841 10.0115 17.2084 10.0947 16.5914C10.011 15.9749 9.4826 15.5 8.84316 15.5C8.20333 15.5 7.67468 15.9756 7.59145 16.5926C7.67518 17.2092 8.20357 17.6841 8.84301 17.6841Z" fill="white"/>
<path d="M40.4218 58.5263C40.4218 57.8285 39.8565 57.2632 39.1587 57.2632H20.6323C19.9345 57.2632 19.3691 57.8287 19.3691 58.5263C19.3691 59.224 19.9345 59.7894 20.6323 59.7894H39.1585C39.8562 59.7896 40.4218 59.2241 40.4218 58.5263Z" fill="white"/>
<path d="M29.8954 21.8945C29.1976 21.8945 28.6323 22.4598 28.6323 23.1577C28.6323 23.8555 29.1976 24.4208 29.8954 24.4208H48.4219C49.1197 24.4208 49.685 23.8555 49.685 23.1577C49.685 22.4598 49.1197 21.8945 48.4219 21.8945H29.8954Z" fill="white"/>
<path d="M20.6323 34.5262H47.5796C48.2774 34.5262 48.8427 33.9608 48.8427 33.2631C48.8427 32.5655 48.2774 32 47.5796 32H20.6323C19.9345 32 19.3691 32.5655 19.3691 33.2631C19.3691 33.9608 19.9346 34.5262 20.6323 34.5262Z" fill="white"/>
<path d="M57.6848 15.1577H20.6323C19.9345 15.1577 19.3691 15.723 19.3691 16.4208C19.3691 17.1187 19.9345 17.684 20.6323 17.684H57.6848C58.3826 17.684 58.9479 17.1187 58.9479 16.4208C58.9479 15.723 58.3824 15.1577 57.6848 15.1577Z" fill="white"/>
<path d="M57.6849 38.7368H56.0007C55.3029 38.7368 54.7375 39.3023 54.7375 39.9999C54.7375 40.6977 55.303 41.2631 56.0007 41.2631H57.6849C58.3827 41.2631 58.948 40.6976 58.948 39.9999C58.948 39.3021 58.3826 38.7368 57.6849 38.7368Z" fill="white"/>
</g>
<defs>
<clipPath id="clip0_28_1824">
<rect width="80" height="80" fill="white"/>
</clipPath>
</defs>
</svg>
