<svg width="80" height="80" viewBox="0 0 80 80" fill="none" xmlns="http://www.w3.org/2000/svg">
<g clip-path="url(#clip0_28_1826)">
<path d="M37.3333 40.0002H42.6667C43.403 40.0002 44 39.4032 44 38.6668C44 37.9305 43.403 37.3335 42.6667 37.3335H37.3333C36.597 37.3335 36 37.9305 36 38.6668C36 39.4032 36.597 40.0002 37.3333 40.0002Z" fill="white"/>
<path d="M41.3333 41.3335H38.6666C37.9302 41.3335 37.3333 41.9304 37.3333 42.6668C37.3333 43.4032 37.9302 44.0002 38.6666 44.0002H41.3333C42.0696 44.0002 42.6666 43.4032 42.6666 42.6668C42.6666 41.9304 42.0696 41.3335 41.3333 41.3335Z" fill="white"/>
<path d="M38.6666 34.6667H41.3333C42.0696 34.6667 42.6666 34.0697 42.6666 33.3333C42.6666 32.597 42.0696 32 41.3333 32H38.6666C37.9302 32 37.3333 32.597 37.3333 33.3333C37.3333 34.0697 37.9302 34.6667 38.6666 34.6667Z" fill="white"/>
<path d="M9.69325 59.056C6.04792 62.6987 4.26659 72.1187 3.99992 77.2C3.96337 77.9301 4.2281 78.6431 4.73222 79.1725C5.23633 79.7018 5.93562 80.001 6.66659 80H73.3333C74.0642 80.001 74.7635 79.7018 75.2676 79.1725C75.7717 78.6431 76.0365 77.9301 75.9999 77.2C75.7333 72.1174 73.9559 62.6974 70.3106 59.0547C66.5493 55.2987 54.5919 51.7214 51.6613 50.892C50.8308 48.7654 50.3852 46.508 50.3453 44.2254L53.7266 41.2667C55.1729 39.9995 56.0016 38.1696 55.9999 36.2467V34.5334C59.099 33.9008 61.3269 31.1777 61.3333 28.0147C61.3273 27.7317 61.3037 27.4494 61.2626 27.1694L65.3959 25.5227C65.9315 25.3096 66.3501 24.8772 66.5457 24.3349C66.7412 23.7927 66.695 23.1926 66.4186 22.6867C65.4037 20.8262 64.0334 19.1831 62.3853 17.8507L64.0706 17.4254C65.0399 17.1845 65.6754 16.2562 65.5493 15.2654C65.1564 13.119 63.7431 11.2983 61.7613 10.3854L63.2493 9.39471C64.0266 8.86093 64.3301 7.85959 63.9799 6.98404C60.7226 -0.878628 48.6053 1.00804 46.8786 1.32137C42.4814 -0.42887 37.583 -0.440787 33.1773 1.28804C30.6426 0.868039 19.3973 -0.541295 16.2866 6.98671C15.9374 7.86886 16.2491 8.87517 17.0359 9.40537L18.5146 10.384C16.5253 11.2961 15.1074 13.1227 14.7173 15.276C14.6039 16.2698 15.2489 17.1922 16.2213 17.4267L17.8866 17.8467C16.2324 19.1843 14.857 20.8337 13.8386 22.7014C13.5694 23.2062 13.5276 23.8016 13.7234 24.3391C13.9193 24.8766 14.3344 25.3054 14.8653 25.5187L18.7466 27.0667C18.697 27.3799 18.6702 27.6963 18.6666 28.0134C18.6723 31.1768 20.9004 33.9007 23.9999 34.5334V36.248C24.0001 38.1706 24.8302 39.9995 26.2773 41.2654L29.6586 44.224C29.6187 46.5067 29.1731 48.7641 28.3426 50.8907C25.4119 51.7334 13.4546 55.3 9.69325 59.056V59.056ZM45.2186 77.3334L44.0373 64.3454L45.0253 62.8627C46.0778 63.7092 47.5996 63.6246 48.5519 62.6667L53.2746 57.9454L55.7973 61.4774L48.4786 77.3334H45.2186ZM31.5226 77.3334L24.2026 61.4667L26.7253 57.9347L31.4479 62.6667C32.4045 63.614 33.9171 63.6998 34.9746 62.8667L35.9626 64.348L34.7813 77.3334H31.5226ZM41.9533 62.6667H38.0466L36.9159 60.9694L39.9999 57.8854L43.0839 60.9694L41.9533 62.6667ZM38.5506 65.3334H41.4493L42.5399 77.3334H37.4666L38.5506 65.3334ZM50.5079 54.072L51.7079 55.7454L46.6666 60.7814L43.0213 57.136C45.7597 56.8565 48.3592 55.7926 50.5079 54.072ZM33.3333 60.7814L28.2973 55.7454L29.4973 54.072C31.6456 55.7936 34.2452 56.8584 36.9839 57.1387L33.3333 60.7814ZM6.66659 77.3414C6.97059 71.5107 8.93325 63.584 11.5773 60.9414C13.9479 58.572 21.0319 55.9587 25.9893 54.384L22.0333 59.924C21.4761 60.703 21.3794 61.7208 21.7799 62.5907L28.5853 77.3334H22.6666V74.6667C22.6666 73.9303 22.0696 73.3334 21.3333 73.3334C20.5969 73.3334 19.9999 73.9303 19.9999 74.6667V77.34L6.66659 77.3414ZM73.3333 77.3334H59.9999V74.6667C59.9999 73.9303 59.403 73.3334 58.6666 73.3334C57.9302 73.3334 57.3333 73.9303 57.3333 74.6667V77.3334H51.4159L58.2159 62.5934C58.6172 61.724 58.5215 60.7061 57.9653 59.9267L54.0106 54.3867C58.9679 55.9614 66.0519 58.5747 68.4226 60.944C71.0666 63.584 73.0293 71.5107 73.3333 77.3334V77.3334ZM61.2786 7.50004L59.3053 8.81604C58.6939 9.22514 58.3565 9.9368 58.4267 10.669C58.4969 11.4012 58.9634 12.0358 59.6413 12.3214C60.98 12.7889 62.0897 13.7499 62.7439 15.008L60.3653 15.608C59.5764 15.7911 58.9758 16.4317 58.8439 17.2307C58.7102 18.0173 59.0639 18.8069 59.7399 19.2307C61.3514 20.2793 62.7055 21.678 63.7013 23.3227L60.3999 24.64C59.6907 23.4325 58.6171 22.4807 57.3333 21.9214V16C57.2801 11.082 54.9019 6.47939 50.9213 3.59071C54.4293 3.46671 59.4106 3.97471 61.2786 7.50004V7.50004ZM54.6666 16V21.6254L50.5013 22.6667H43.9999C43.3472 22.669 42.7184 22.9126 42.2346 23.3507C40.8844 22.4386 39.1154 22.4386 37.7653 23.3507C37.2814 22.9126 36.6526 22.669 35.9999 22.6667H29.4986L25.3333 21.6254V16C25.3541 12.4092 26.8982 8.99595 29.5813 6.60937C32.4371 4.03548 36.1556 2.62831 39.9999 2.66671C48.0866 2.66671 54.6666 8.64804 54.6666 16V16ZM50.6666 25.3334V28C50.6666 28.7364 50.0696 29.3334 49.3333 29.3334H45.3333C44.5969 29.3334 43.9999 28.7364 43.9999 28V25.3334H50.6666ZM29.3333 25.3334H35.9999V28C35.9999 28.7364 35.403 29.3334 34.6666 29.3334H30.6666C29.9302 29.3334 29.3333 28.7364 29.3333 28V25.3334ZM16.5653 23.3254C17.5586 21.6837 18.9094 20.2873 20.5173 19.24C21.1911 18.8124 21.5463 18.0251 21.4208 17.2369C21.2953 16.4487 20.7133 15.8106 19.9399 15.6134L17.5173 15.0027C18.1831 13.7351 19.3106 12.7719 20.6666 12.312C21.3285 12.0175 21.7793 11.3881 21.8453 10.6667C21.9132 9.93043 21.5756 9.2154 20.9639 8.80004L18.9893 7.49204C20.8039 4.06537 25.5599 3.49204 29.0479 3.58004C28.6088 3.91071 28.1857 4.26271 27.7786 4.63604C24.5399 7.52753 22.6817 11.6584 22.6666 16V21.9214C21.4146 22.4682 20.3628 23.3896 19.6559 24.5587L16.5653 23.3254ZM26.6666 36.2467V33.3334C26.6666 32.597 26.0696 32 25.3333 32C23.1293 32.0001 21.3406 30.2173 21.3333 28.0134C21.3339 27.5853 21.4041 27.1602 21.5413 26.7547C21.5413 26.744 21.5413 26.7334 21.5413 26.724C21.9767 25.4571 23.0215 24.4951 24.3199 24.1654C24.3373 24.1654 24.3506 24.148 24.3679 24.1427L26.6666 24.708V28C26.6666 30.2092 28.4574 32 30.6666 32H34.6666C36.8757 32 38.6666 30.2092 38.6666 28V26.6667C38.6666 25.9303 39.2635 25.3334 39.9999 25.3334C40.7363 25.3334 41.3333 25.9303 41.3333 26.6667V28C41.3333 30.2092 43.1241 32 45.3333 32H49.3333C51.5424 32 53.3333 30.2092 53.3333 28V24.708L55.6226 24.136C55.6399 24.136 55.6533 24.1547 55.6706 24.1587C57.6189 24.6565 58.8905 26.5286 58.6351 28.5232C58.3797 30.5178 56.6775 32.0092 54.6666 32C53.9302 32 53.3333 32.597 53.3333 33.3334V36.2467C53.3332 37.4004 52.835 38.4979 51.9666 39.2574L44.6333 45.6774C43.9042 46.3151 42.9685 46.6666 41.9999 46.6667H37.9999C37.0313 46.6666 36.0956 46.3151 35.3666 45.6774L28.0333 39.2574C27.1648 38.4979 26.6667 37.4004 26.6666 36.2467ZM33.6133 47.684C34.8277 48.7466 36.3863 49.3326 37.9999 49.3334H41.9999C43.6149 49.3336 45.1751 48.7475 46.3906 47.684L47.8253 46.428C48.0249 48.2515 48.4611 50.0412 49.1226 51.752C48.1439 52.7067 45.4773 54.6667 39.9999 54.6667C34.5226 54.6667 31.8466 52.7 30.8813 51.7534C31.5428 50.042 31.9789 48.2519 32.1786 46.428L33.6133 47.684Z" fill="white"/>
<path d="M36 17.3335H29.3333C28.597 17.3335 28 17.9305 28 18.6668C28 19.4032 28.597 20.0002 29.3333 20.0002H36C36.7364 20.0002 37.3333 19.4032 37.3333 18.6668C37.3333 17.9305 36.7364 17.3335 36 17.3335Z" fill="white"/>
<path d="M42.6665 18.6668C42.6665 19.4032 43.2635 20.0002 43.9998 20.0002H50.6665C51.4029 20.0002 51.9998 19.4032 51.9998 18.6668C51.9998 17.9305 51.4029 17.3335 50.6665 17.3335H43.9998C43.2635 17.3335 42.6665 17.9305 42.6665 18.6668Z" fill="white"/>
<path d="M35.9998 13.3332H43.9998C44.7362 13.3332 45.3332 12.7362 45.3332 11.9998C45.3332 11.2635 44.7362 10.6665 43.9998 10.6665H35.9998C35.2635 10.6665 34.6665 11.2635 34.6665 11.9998C34.6665 12.7362 35.2635 13.3332 35.9998 13.3332Z" fill="white"/>
<path d="M35.9998 9.33317H38.6665C39.4029 9.33317 39.9998 8.73622 39.9998 7.99984C39.9998 7.26346 39.4029 6.6665 38.6665 6.6665H35.9998C35.2635 6.6665 34.6665 7.26346 34.6665 7.99984C34.6665 8.73622 35.2635 9.33317 35.9998 9.33317Z" fill="white"/>
</g>
<defs>
<clipPath id="clip0_28_1826">
<rect width="80" height="80" fill="white"/>
</clipPath>
</defs>
</svg>
