<svg width="80" height="80" viewBox="0 0 80 80" fill="none" xmlns="http://www.w3.org/2000/svg">
<g clip-path="url(#clip0_28_1825)">
<path d="M40.4331 28.3604H10.4356C9.78845 28.3604 9.26392 28.885 9.26392 29.5321C9.26392 30.1793 9.78845 30.7038 10.4356 30.7038H40.4333C41.0805 30.7038 41.605 30.1791 41.605 29.5321C41.605 28.885 41.0805 28.3604 40.4331 28.3604Z" fill="white"/>
<path d="M40.4331 36.5938H10.4356C9.78845 36.5938 9.26392 37.1184 9.26392 37.7655C9.26392 38.4125 9.78845 38.9372 10.4356 38.9372H40.4333C41.0805 38.9372 41.605 38.4125 41.605 37.7655C41.605 37.1184 41.0805 36.5938 40.4331 36.5938Z" fill="white"/>
<path d="M40.4331 44.8276H10.4356C9.78845 44.8276 9.26392 45.3523 9.26392 45.9994C9.26392 46.6464 9.78845 47.1711 10.4356 47.1711H40.4333C41.0805 47.1711 41.605 46.6464 41.605 45.9994C41.605 45.3523 41.0805 44.8276 40.4331 44.8276Z" fill="white"/>
<path d="M41.605 54.2332C41.605 53.5861 41.0805 53.0615 40.4333 53.0615H10.4356C9.78845 53.0615 9.26392 53.5862 9.26392 54.2332C9.26392 54.8803 9.78845 55.405 10.4356 55.405H40.4333C41.0805 55.405 41.605 54.8804 41.605 54.2332Z" fill="white"/>
<path d="M10.4356 65.1284C9.78845 65.1284 9.26392 65.6531 9.26392 66.3001C9.26392 66.9472 9.78845 67.4719 10.4356 67.4719H25.4728C26.12 67.4719 26.6446 66.9472 26.6446 66.3001C26.6446 65.6531 26.12 65.1284 25.4728 65.1284H10.4356Z" fill="white"/>
<path d="M53.9364 14.5082V10.706C53.9364 9.25754 52.7581 8.0791 51.3095 8.0791H27.2522C25.8038 8.0791 24.6255 9.25754 24.6255 10.706V14.5082C24.6255 15.9566 25.8038 17.1349 27.2522 17.1349H29.2838C29.931 17.1349 30.4555 16.6102 30.4555 15.9632C30.4555 15.316 29.931 14.7914 29.2838 14.7914H27.2522C27.0961 14.7914 26.9691 14.6644 26.9691 14.5083V10.706C26.9691 10.5499 27.0961 10.4227 27.2522 10.4227H51.3095C51.4658 10.4227 51.5928 10.5497 51.5928 10.706V14.5082C51.5928 14.6643 51.4658 14.7913 51.3095 14.7913H29.3031C28.6559 14.7913 28.1314 15.316 28.1314 15.963C28.1314 16.6102 28.6559 17.1347 29.3031 17.1347H51.3097C52.7581 17.135 53.9364 15.9566 53.9364 14.5082Z" fill="white"/>
<path d="M62.6981 67.5C62.0509 67.5 61.5264 68.0247 61.5264 68.6717V74.2022C61.5264 76.1067 59.9768 77.6564 58.072 77.6564H6.23418C4.32965 77.6564 2.77996 76.1069 2.77996 74.2022V17.8794C2.77996 17.6258 2.80965 17.377 2.86262 17.135H13.5318C15.7593 17.135 17.5715 15.3228 17.5715 13.0953V2.42625C17.8136 2.37328 18.0621 2.34359 18.3157 2.34359H58.0718C59.9765 2.34359 61.5262 3.89312 61.5262 5.79781V26.3283C61.5262 26.9755 62.0507 27.5 62.6979 27.5C63.3451 27.5 63.8696 26.9753 63.8696 26.3283V5.79766C63.8698 2.60094 61.2689 0 58.072 0H18.3159C16.7673 0 15.3112 0.603125 14.2162 1.69812L2.13449 13.7798C1.03949 14.8748 0.436523 16.3308 0.436523 17.8795V74.2023C0.436523 77.3992 3.0373 80 6.23418 80H58.072C61.2689 80 63.8698 77.3991 63.8698 74.2023V68.6719C63.8698 68.0247 63.3453 67.5 62.6981 67.5ZM15.2281 4.00062V13.0953C15.2281 14.0306 14.4671 14.7916 13.5318 14.7916H4.43715L15.2281 4.00062Z" fill="white"/>
<path d="M78.747 41.8752C79.5695 40.6679 79.7824 39.1787 79.331 37.7893C78.8795 36.3999 77.8319 35.3202 76.4569 34.8271C75.5447 34.4999 74.9361 33.6624 74.9071 32.6937C74.8628 31.2335 74.1596 29.9035 72.9775 29.0447C71.7958 28.1862 70.3133 27.9285 68.9114 28.3376C67.9805 28.6091 66.9966 28.2891 66.4035 27.5227C65.5096 26.3672 64.1589 25.7046 62.698 25.7046C61.2372 25.7046 59.8864 26.3672 58.9924 27.5227C58.3992 28.2893 57.4147 28.6088 56.4846 28.3376C55.0825 27.9282 53.6002 28.1862 52.4182 29.0447C51.2363 29.9035 50.5333 31.2333 50.4889 32.6935C50.4597 33.6622 49.8513 34.4996 48.9389 34.8269C47.5639 35.3201 46.5163 36.3999 46.065 37.7891C45.6136 39.1785 45.8264 40.6679 46.6489 41.8751C47.1946 42.6761 47.1946 43.7112 46.6489 44.5121C45.8264 45.7194 45.6136 47.2087 46.065 48.598C46.5163 49.9874 47.5639 51.0671 48.9389 51.5604C49.8513 51.8877 50.4599 52.7251 50.4889 53.6938C50.5297 55.0369 51.1452 56.299 52.178 57.156C52.8594 57.7216 53.678 58.0755 54.5347 58.1938V68.8622C54.5347 69.7624 55.023 70.5944 55.8088 71.0333C56.5936 71.4719 57.5585 71.4524 58.3255 70.9801L62.6232 68.3344C62.6932 68.2912 62.7349 68.3107 62.7735 68.3344L67.0708 70.9801C67.8375 71.4519 68.8021 71.4722 69.5877 71.0332C70.3736 70.5941 70.8617 69.7621 70.8617 68.8621V58.1935C71.7181 58.0754 72.5367 57.7215 73.2181 57.156C74.2511 56.299 74.8667 55.0371 74.9075 53.6937C74.9366 52.7249 75.5452 51.8874 76.4574 51.5602C77.8325 51.0671 78.8802 49.9872 79.3314 48.5979C79.7828 47.2085 79.57 45.7193 78.7475 44.5119C78.2013 43.7113 78.2013 42.6763 78.747 41.8752V41.8752ZM68.2991 68.9844L64.0016 66.3388C63.2027 65.8471 62.1939 65.8463 61.3942 66.3388L57.0967 68.9843C56.9989 69.0438 56.8782 68.9752 56.8782 68.8621V57.9713C57.6838 57.878 58.4825 58.2058 58.9924 58.8647C59.8866 60.0201 61.2372 60.6827 62.6982 60.6827C64.1589 60.6827 65.5096 60.0201 66.4035 58.8647C66.9135 58.2057 67.7124 57.878 68.5178 57.9713V68.8621C68.5178 68.976 68.3955 69.044 68.2991 68.9844V68.9844ZM76.8103 45.8319C77.2216 46.4354 77.3278 47.1796 77.1022 47.874C76.8766 48.5683 76.353 49.108 75.6656 49.3546C73.8403 50.0093 72.6231 51.6847 72.5646 53.623C72.5438 54.3044 72.2442 54.9187 71.7213 55.3527C71.1333 55.8407 70.3371 56.0247 69.568 55.8004C67.7066 55.2572 65.7367 55.8972 64.5499 57.4307C64.1031 58.008 63.428 58.3393 62.6978 58.3393C61.9678 58.3393 61.2927 58.0082 60.8456 57.4307C59.9396 56.2594 58.5769 55.6094 57.1546 55.6094C56.7142 55.6094 56.268 55.6718 55.828 55.8002C55.0514 56.0265 54.2575 55.8368 53.6742 55.3526C53.1513 54.9185 52.8518 54.3043 52.8313 53.623C52.7725 51.6847 51.5553 50.0093 49.7299 49.3544C49.0427 49.1079 48.5193 48.5683 48.2935 47.874C48.0678 47.1796 48.1741 46.4352 48.5853 45.8318C49.6771 44.2291 49.6771 42.1583 48.5853 40.5557C48.1741 39.9522 48.0678 39.2079 48.2935 38.5133C48.5191 37.819 49.0427 37.2793 49.7299 37.0329C51.5553 36.378 52.7725 34.7026 52.8313 32.7643C52.8533 32.0344 53.2046 31.3697 53.7953 30.9407C54.3858 30.5115 55.1264 30.3827 55.8278 30.5871C57.6888 31.1304 59.6591 30.4902 60.8456 28.9568C61.2925 28.3793 61.9675 28.048 62.6978 28.048C63.428 28.048 64.103 28.3791 64.5499 28.9566C65.7366 30.4902 67.706 31.1302 69.5678 30.5871C70.2688 30.3824 71.0094 30.5113 71.6002 30.9405C72.191 31.3696 72.5425 32.0344 72.5644 32.7641C72.6231 34.7024 73.8403 36.378 75.6656 37.0327C76.353 37.2791 76.8764 37.8188 77.1022 38.5132C77.3278 39.2076 77.2216 39.9521 76.8103 40.5554C75.7183 42.1582 75.7183 44.2293 76.8103 45.8319V45.8319Z" fill="white"/>
<path d="M62.6981 33.3726C57.2828 33.3726 52.8772 37.7782 52.8772 43.1935C52.8772 48.6088 57.2828 53.0144 62.6981 53.0144C68.1133 53.0144 72.5189 48.6088 72.5189 43.1935C72.5189 37.7782 68.1133 33.3726 62.6981 33.3726V33.3726ZM62.6981 50.671C58.575 50.671 55.2206 47.3166 55.2206 43.1936C55.2206 39.0707 58.575 35.7162 62.6981 35.7162C66.8213 35.7162 70.1755 39.0705 70.1755 43.1936C70.1755 47.3168 66.8211 50.671 62.6981 50.671Z" fill="white"/>
</g>
<defs>
<clipPath id="clip0_28_1825">
<rect width="80" height="80" fill="white"/>
</clipPath>
</defs>
</svg>
